<?xml version="1.0" encoding="utf-8"?>
<!-- Generator: Adobe Illustrator 24.0.3, SVG Export Plug-In . SVG Version: 6.00 Build 0)  -->
<svg version="1.1" id="Laag_1" xmlns="http://www.w3.org/2000/svg" xmlns:xlink="http://www.w3.org/1999/xlink" x="0px" y="0px"
	 viewBox="0 0 388 274" style="enable-background:new 0 0 388 274;" xml:space="preserve">
<style type="text/css">
	.st0{fill:#E0F3FD;}
	.st1{fill:#2661AB;}
	.st2{fill:#4C9ED7;}
	.st3{fill:#9CD7F6;}
	.st4{fill:#0D529F;}
	.st5{fill:#91C8E5;}
	.st6{fill:#1F274C;}
	.st7{fill:#1C2243;}
	.st8{fill:#0D4C94;}
	.st9{fill:#4893C7;}
	.st10{fill:#BCE3F9;}
	.st11{fill:#AFD3E8;}
	.st12{fill:#22508B;}
</style>
<g id="Group_113">
	<g transform="matrix(1, 0, 0, 1, 133, 264)">
		<rect id="Rectangle_2-2" x="-133" y="-264" class="st0" width="388" height="274"/>
	</g>
</g>
<g>
	<path class="st1" d="M313.3,161.7H35.8v-50h277.5c13.8,0,39.7,11.2,39.7,25v0C353,150.5,327.1,161.7,313.3,161.7z"/>
	<rect x="37.4" y="153.4" class="st2" width="15.4" height="6.7"/>
	<rect x="37.4" y="133.4" class="st3" width="15.4" height="6.7"/>
	<rect x="37.4" y="146.7" class="st4" width="15.4" height="6.7"/>
	<polygon class="st5" points="52.2,133.4 52.2,139.5 37.4,139.5 37.4,140.1 52.2,140.1 52.8,140.1 52.8,139.5 52.8,133.4 	"/>
	<rect x="37.4" y="113.5" class="st6" width="15.4" height="6.7"/>
	<polygon class="st7" points="52.2,113.5 52.2,119.5 37.4,119.5 37.4,120.1 52.2,120.1 52.8,120.1 52.8,119.5 52.8,113.5 	"/>
	<polygon class="st8" points="52.2,146.7 52.2,152.8 37.4,152.8 37.4,153.4 52.2,153.4 52.8,153.4 52.8,152.8 52.8,146.7 	"/>
	<rect x="37.4" y="120.1" class="st4" width="15.4" height="6.7"/>
	<polygon class="st8" points="52.2,120.1 52.2,126.2 37.4,126.2 37.4,126.8 52.2,126.8 52.8,126.8 52.8,126.2 52.8,120.1 	"/>
	<polygon class="st9" points="52.2,153.4 52.2,159.4 37.4,159.4 37.4,160 52.2,160 52.8,160 52.8,159.4 52.8,153.4 	"/>
	<rect x="52.8" y="153.4" class="st6" width="15.4" height="6.7"/>
	<rect x="52.8" y="126.8" class="st6" width="15.4" height="6.7"/>
	<rect x="52.8" y="133.4" class="st4" width="15.4" height="6.7"/>
	<rect x="52.8" y="140.1" class="st2" width="15.4" height="6.7"/>
	<polygon class="st7" points="67.5,126.8 67.5,132.8 52.8,132.8 52.8,133.4 67.5,133.4 68.2,133.4 68.2,132.8 68.2,126.8 	"/>
	<polygon class="st8" points="67.5,133.4 67.5,139.5 52.8,139.5 52.8,140.1 67.5,140.1 68.2,140.1 68.2,139.5 68.2,133.4 	"/>
	<polygon class="st9" points="67.5,140.1 67.5,146.1 52.8,146.1 52.8,146.7 67.5,146.7 68.2,146.7 68.2,146.1 68.2,140.1 	"/>
	<rect x="52.8" y="113.5" class="st4" width="15.4" height="6.7"/>
	<polygon class="st8" points="67.5,113.5 67.5,119.5 52.8,119.5 52.8,120.1 67.5,120.1 68.2,120.1 68.2,119.5 68.2,113.5 	"/>
	<rect x="52.8" y="120.1" class="st2" width="15.4" height="6.7"/>
	<polygon class="st9" points="67.5,120.1 67.5,126.2 52.8,126.2 52.8,126.8 67.5,126.8 68.2,126.8 68.2,126.2 68.2,120.1 	"/>
	<polygon class="st7" points="67.5,153.4 67.5,159.4 52.8,159.4 52.8,160 67.5,160 68.2,160 68.2,159.4 68.2,153.4 	"/>
	<rect x="68.2" y="153.4" class="st4" width="15.4" height="6.7"/>
	<rect x="68.2" y="113.5" class="st6" width="15.4" height="6.7"/>
	<polygon class="st7" points="82.9,113.5 82.9,119.5 68.2,119.5 68.2,120.1 82.9,120.1 83.5,120.1 83.5,119.5 83.5,113.5 	"/>
	<polygon class="st8" points="82.9,153.4 82.9,159.4 68.2,159.4 68.2,160 82.9,160 83.5,160 83.5,159.4 83.5,153.4 	"/>
	<rect x="83.5" y="126.8" class="st4" width="15.4" height="6.7"/>
	<rect x="83.5" y="140.1" class="st3" width="15.4" height="6.7"/>
	<rect x="83.5" y="146.7" class="st4" width="15.4" height="6.7"/>
	<polygon class="st8" points="98.2,126.8 98.2,132.8 83.5,132.8 83.5,133.4 98.2,133.4 98.9,133.4 98.9,132.8 98.9,126.8 	"/>
	<polygon class="st5" points="98.2,140.1 98.2,146.1 83.5,146.1 83.5,146.7 98.2,146.7 98.9,146.7 98.9,146.1 98.9,140.1 	"/>
	<polygon class="st8" points="98.2,146.7 98.2,152.8 83.5,152.8 83.5,153.4 98.2,153.4 98.9,153.4 98.9,152.8 98.9,146.7 	"/>
	<rect x="98.9" y="153.4" class="st2" width="15.4" height="6.7"/>
	<rect x="98.9" y="126.8" class="st6" width="15.4" height="6.7"/>
	<rect x="98.9" y="140.1" class="st2" width="15.4" height="6.7"/>
	<polygon class="st7" points="113.6,126.8 113.6,132.8 98.9,132.8 98.9,133.4 113.6,133.4 114.2,133.4 114.2,132.8 114.2,126.8 	"/>
	<polygon class="st9" points="113.6,140.1 113.6,146.1 98.9,146.1 98.9,146.7 113.6,146.7 114.2,146.7 114.2,146.1 114.2,140.1 	"/>
	<rect x="98.9" y="113.5" class="st4" width="15.4" height="6.7"/>
	<polygon class="st8" points="113.6,113.5 113.6,119.5 98.9,119.5 98.9,120.1 113.6,120.1 114.2,120.1 114.2,119.5 114.2,113.5 	"/>
	<rect x="98.9" y="120.1" class="st2" width="15.4" height="6.7"/>
	<polygon class="st9" points="113.6,120.1 113.6,126.2 98.9,126.2 98.9,126.8 113.6,126.8 114.2,126.8 114.2,126.2 114.2,120.1 	"/>
	<polygon class="st9" points="113.6,153.4 113.6,159.4 98.9,159.4 98.9,160 113.6,160 114.2,160 114.2,159.4 114.2,153.4 	"/>
	<rect x="114.2" y="153.4" class="st6" width="15.4" height="6.7"/>
	<rect x="114.2" y="126.8" class="st3" width="15.4" height="6.7"/>
	<rect x="114.2" y="133.4" class="st2" width="15.4" height="6.7"/>
	<rect x="114.2" y="140.1" class="st4" width="15.4" height="6.7"/>
	<polygon class="st5" points="128.9,126.8 128.9,132.8 114.2,132.8 114.2,133.4 128.9,133.4 129.6,133.4 129.6,132.8 129.6,126.8 	
		"/>
	<polygon class="st9" points="128.9,133.4 128.9,139.5 114.2,139.5 114.2,140.1 128.9,140.1 129.6,140.1 129.6,139.5 129.6,133.4 	
		"/>
	<polygon class="st8" points="128.9,140.1 128.9,146.1 114.2,146.1 114.2,146.7 128.9,146.7 129.6,146.7 129.6,146.1 129.6,140.1 	
		"/>
	<rect x="114.2" y="120.1" class="st4" width="15.4" height="6.7"/>
	<polygon class="st8" points="128.9,120.1 128.9,126.2 114.2,126.2 114.2,126.8 128.9,126.8 129.6,126.8 129.6,126.2 129.6,120.1 	
		"/>
	<polygon class="st7" points="128.9,153.4 128.9,159.4 114.2,159.4 114.2,160 128.9,160 129.6,160 129.6,159.4 129.6,153.4 	"/>
	<rect x="129.6" y="126.8" class="st4" width="15.4" height="6.7"/>
	<rect x="129.6" y="140.1" class="st6" width="15.4" height="6.7"/>
	<rect x="129.6" y="146.7" class="st4" width="15.4" height="6.7"/>
	<polygon class="st8" points="144.3,126.8 144.3,132.8 129.6,132.8 129.6,133.4 144.3,133.4 144.9,133.4 144.9,132.8 144.9,126.8 	
		"/>
	<polygon class="st7" points="144.3,140.1 144.3,146.1 129.6,146.1 129.6,146.7 144.3,146.7 144.9,146.7 144.9,146.1 144.9,140.1 	
		"/>
	<polygon class="st8" points="144.3,146.7 144.3,152.8 129.6,152.8 129.6,153.4 144.3,153.4 144.9,153.4 144.9,152.8 144.9,146.7 	
		"/>
	<rect x="129.6" y="120.1" class="st2" width="15.4" height="6.7"/>
	<polygon class="st9" points="144.3,120.1 144.3,126.2 129.6,126.2 129.6,126.8 144.3,126.8 144.9,126.8 144.9,126.2 144.9,120.1 	
		"/>
	<rect x="144.9" y="153.4" class="st6" width="15.4" height="6.7"/>
	<rect x="144.9" y="126.8" class="st6" width="15.4" height="6.7"/>
	<rect x="144.9" y="133.4" class="st3" width="15.4" height="6.7"/>
	<rect x="144.9" y="140.1" class="st2" width="15.4" height="6.7"/>
	<polygon class="st7" points="159.6,126.8 159.6,132.8 144.9,132.8 144.9,133.4 159.6,133.4 160.3,133.4 160.3,132.8 160.3,126.8 	
		"/>
	<polygon class="st5" points="159.6,133.4 159.6,139.5 144.9,139.5 144.9,140.1 159.6,140.1 160.3,140.1 160.3,139.5 160.3,133.4 	
		"/>
	<polygon class="st9" points="159.6,140.1 159.6,146.1 144.9,146.1 144.9,146.7 159.6,146.7 160.3,146.7 160.3,146.1 160.3,140.1 	
		"/>
	<rect x="144.9" y="113.5" class="st2" width="15.4" height="6.7"/>
	<polygon class="st9" points="159.6,113.5 159.6,119.5 144.9,119.5 144.9,120.1 159.6,120.1 160.3,120.1 160.3,119.5 160.3,113.5 	
		"/>
	<rect x="144.9" y="120.1" class="st4" width="15.4" height="6.7"/>
	<polygon class="st8" points="159.6,120.1 159.6,126.2 144.9,126.2 144.9,126.8 159.6,126.8 160.3,126.8 160.3,126.2 160.3,120.1 	
		"/>
	<polygon class="st7" points="159.6,153.4 159.6,159.4 144.9,159.4 144.9,160 159.6,160 160.3,160 160.3,159.4 160.3,153.4 	"/>
	<rect x="160.3" y="153.4" class="st2" width="15.4" height="6.7"/>
	<rect x="160.3" y="133.4" class="st4" width="15.4" height="6.7"/>
	<rect x="160.3" y="146.7" class="st4" width="15.4" height="6.7"/>
	<polygon class="st8" points="175,133.4 175,139.5 160.3,139.5 160.3,140.1 175,140.1 175.6,140.1 175.6,139.5 175.6,133.4 	"/>
	<rect x="160.3" y="113.5" class="st6" width="15.4" height="6.7"/>
	<polygon class="st7" points="175,113.5 175,119.5 160.3,119.5 160.3,120.1 175,120.1 175.6,120.1 175.6,119.5 175.6,113.5 	"/>
	<polygon class="st8" points="175,146.7 175,152.8 160.3,152.8 160.3,153.4 175,153.4 175.6,153.4 175.6,152.8 175.6,146.7 	"/>
	<polygon class="st9" points="175,153.4 175,159.4 160.3,159.4 160.3,160 175,160 175.6,160 175.6,159.4 175.6,153.4 	"/>
	<rect x="175.6" y="153.4" class="st6" width="15.4" height="6.7"/>
	<rect x="175.6" y="126.8" class="st3" width="15.4" height="6.7"/>
	<rect x="175.6" y="146.7" class="st2" width="15.4" height="6.7"/>
	<polygon class="st5" points="190.3,126.8 190.3,132.8 175.6,132.8 175.6,133.4 190.3,133.4 191,133.4 191,132.8 191,126.8 	"/>
	<rect x="175.6" y="113.5" class="st2" width="15.4" height="6.7"/>
	<polygon class="st9" points="190.3,113.5 190.3,119.5 175.6,119.5 175.6,120.1 190.3,120.1 191,120.1 191,119.5 191,113.5 	"/>
	<polygon class="st9" points="190.3,146.7 190.3,152.8 175.6,152.8 175.6,153.4 190.3,153.4 191,153.4 191,152.8 191,146.7 	"/>
	<rect x="175.6" y="120.1" class="st4" width="15.4" height="6.7"/>
	<polygon class="st8" points="190.3,120.1 190.3,126.2 175.6,126.2 175.6,126.8 190.3,126.8 191,126.8 191,126.2 191,120.1 	"/>
	<polygon class="st7" points="190.3,153.4 190.3,159.4 175.6,159.4 175.6,160 190.3,160 191,160 191,159.4 191,153.4 	"/>
	<rect x="191" y="153.4" class="st10" width="15.4" height="6.7"/>
	<rect x="191" y="133.4" class="st3" width="15.4" height="6.7"/>
	<rect x="191" y="146.7" class="st4" width="15.4" height="6.7"/>
	<polygon class="st5" points="205.7,133.4 205.7,139.5 191,139.5 191,140.1 205.7,140.1 206.3,140.1 206.3,139.5 206.3,133.4 	"/>
	<polygon class="st8" points="205.7,146.7 205.7,152.8 191,152.8 191,153.4 205.7,153.4 206.3,153.4 206.3,152.8 206.3,146.7 	"/>
	<rect x="191" y="120.1" class="st6" width="15.4" height="6.7"/>
	<polygon class="st7" points="205.7,120.1 205.7,126.2 191,126.2 191,126.8 205.7,126.8 206.3,126.8 206.3,126.2 206.3,120.1 	"/>
	<polygon class="st11" points="205.7,153.4 205.7,159.4 191,159.4 191,160 205.7,160 206.3,160 206.3,159.4 206.3,153.4 	"/>
	<rect x="206.3" y="153.4" class="st2" width="15.4" height="6.7"/>
	<rect x="206.3" y="133.4" class="st2" width="15.4" height="6.7"/>
	<polygon class="st9" points="221,133.4 221,139.5 206.3,139.5 206.3,140.1 221,140.1 221.7,140.1 221.7,139.5 221.7,133.4 	"/>
	<rect x="206.3" y="113.5" class="st4" width="15.4" height="6.7"/>
	<polygon class="st8" points="221,113.5 221,119.5 206.3,119.5 206.3,120.1 221,120.1 221.7,120.1 221.7,119.5 221.7,113.5 	"/>
	<rect x="206.3" y="120.1" class="st3" width="15.4" height="6.7"/>
	<polygon class="st5" points="221,120.1 221,126.2 206.3,126.2 206.3,126.8 221,126.8 221.7,126.8 221.7,126.2 221.7,120.1 	"/>
	<polygon class="st9" points="221,153.4 221,159.4 206.3,159.4 206.3,160 221,160 221.7,160 221.7,159.4 221.7,153.4 	"/>
	<rect x="221.7" y="153.4" class="st4" width="15.4" height="6.7"/>
	<rect x="221.7" y="133.4" class="st4" width="15.4" height="6.7"/>
	<rect x="221.7" y="140.1" class="st2" width="15.4" height="6.7"/>
	<polygon class="st8" points="236.4,133.4 236.4,139.5 221.7,139.5 221.7,140.1 236.4,140.1 237,140.1 237,139.5 237,133.4 	"/>
	<polygon class="st9" points="236.4,140.1 236.4,146.1 221.7,146.1 221.7,146.7 236.4,146.7 237,146.7 237,146.1 237,140.1 	"/>
	<rect x="221.7" y="113.5" class="st6" width="15.4" height="6.7"/>
	<polygon class="st7" points="236.4,113.5 236.4,119.5 221.7,119.5 221.7,120.1 236.4,120.1 237,120.1 237,119.5 237,113.5 	"/>
	<rect x="221.7" y="120.1" class="st2" width="15.4" height="6.7"/>
	<polygon class="st9" points="236.4,120.1 236.4,126.2 221.7,126.2 221.7,126.8 236.4,126.8 237,126.8 237,126.2 237,120.1 	"/>
	<polygon class="st8" points="236.4,153.4 236.4,159.4 221.7,159.4 221.7,160 236.4,160 237,160 237,159.4 237,153.4 	"/>
	<rect x="237" y="153.4" class="st6" width="15.4" height="6.7"/>
	<rect x="237" y="126.8" class="st2" width="15.4" height="6.7"/>
	<rect x="237" y="140.1" class="st3" width="15.4" height="6.7"/>
	<rect x="237" y="146.7" class="st4" width="15.4" height="6.7"/>
	<polygon class="st9" points="251.7,126.8 251.7,132.8 237,132.8 237,133.4 251.7,133.4 252.4,133.4 252.4,132.8 252.4,126.8 	"/>
	<polygon class="st5" points="251.7,140.1 251.7,146.1 237,146.1 237,146.7 251.7,146.7 252.4,146.7 252.4,146.1 252.4,140.1 	"/>
	<polygon class="st8" points="251.7,146.7 251.7,152.8 237,152.8 237,153.4 251.7,153.4 252.4,153.4 252.4,152.8 252.4,146.7 	"/>
	<rect x="237" y="120.1" class="st4" width="15.4" height="6.7"/>
	<polygon class="st8" points="251.7,120.1 251.7,126.2 237,126.2 237,126.8 251.7,126.8 252.4,126.8 252.4,126.2 252.4,120.1 	"/>
	<polygon class="st7" points="251.7,153.4 251.7,159.4 237,159.4 237,160 251.7,160 252.4,160 252.4,159.4 252.4,153.4 	"/>
	<rect x="283.1" y="153.4" class="st2" width="15.4" height="6.7"/>
	<rect x="283.1" y="133.4" class="st3" width="15.4" height="6.7"/>
	<rect x="283.1" y="140.1" class="st6" width="15.4" height="6.7"/>
	<rect x="283.1" y="146.7" class="st4" width="15.4" height="6.7"/>
	<polygon class="st5" points="297.8,133.4 297.8,139.5 283.1,139.5 283.1,140.1 297.8,140.1 298.4,140.1 298.4,139.5 298.4,133.4 	
		"/>
	<polygon class="st7" points="297.8,140.1 297.8,146.1 283.1,146.1 283.1,146.7 297.8,146.7 298.4,146.7 298.4,146.1 298.4,140.1 	
		"/>
	<polygon class="st8" points="297.8,146.7 297.8,152.8 283.1,152.8 283.1,153.4 297.8,153.4 298.4,153.4 298.4,152.8 298.4,146.7 	
		"/>
	<rect x="283.1" y="120.1" class="st4" width="15.4" height="6.7"/>
	<polygon class="st8" points="297.8,120.1 297.8,126.2 283.1,126.2 283.1,126.8 297.8,126.8 298.4,126.8 298.4,126.2 298.4,120.1 	
		"/>
	<polygon class="st9" points="297.8,153.4 297.8,159.4 283.1,159.4 283.1,160 297.8,160 298.4,160 298.4,159.4 298.4,153.4 	"/>
	<rect x="298.4" y="126.8" class="st6" width="15.4" height="6.7"/>
	<rect x="298.4" y="140.1" class="st2" width="15.4" height="6.7"/>
	<polygon class="st7" points="313.2,126.8 313.2,132.8 298.4,132.8 298.4,133.4 313.2,133.4 313.8,133.4 313.8,132.8 313.8,126.8 	
		"/>
	<polygon class="st9" points="313.2,140.1 313.2,146.1 298.4,146.1 298.4,146.7 313.2,146.7 313.8,146.7 313.8,146.1 313.8,140.1 	
		"/>
	<rect x="298.4" y="113.5" class="st4" width="15.4" height="6.7"/>
	<polygon class="st8" points="313.2,113.5 313.2,119.5 298.4,119.5 298.4,120.1 313.2,120.1 313.8,120.1 313.8,119.5 313.8,113.5 	
		"/>
	<rect x="298.4" y="120.1" class="st2" width="15.4" height="6.7"/>
	<polygon class="st9" points="313.2,120.1 313.2,126.2 298.4,126.2 298.4,126.8 313.2,126.8 313.8,126.8 313.8,126.2 313.8,120.1 	
		"/>
	<rect x="313.8" y="126.8" class="st2" width="15.4" height="6.7"/>
	<rect x="313.8" y="133.4" class="st3" width="15.4" height="6.7"/>
	<rect x="313.8" y="140.1" class="st6" width="15.4" height="6.7"/>
	<rect x="313.8" y="146.7" class="st4" width="15.4" height="6.7"/>
	<polygon class="st9" points="328.5,126.8 328.5,132.8 313.8,132.8 313.8,133.4 328.5,133.4 329.1,133.4 329.1,132.8 329.1,126.8 	
		"/>
	<polygon class="st5" points="328.5,133.4 328.5,139.5 313.8,139.5 313.8,140.1 328.5,140.1 329.1,140.1 329.1,139.5 329.1,133.4 	
		"/>
	<polygon class="st7" points="328.5,140.1 328.5,146.1 313.8,146.1 313.8,146.7 328.5,146.7 329.1,146.7 329.1,146.1 329.1,140.1 	
		"/>
	<polygon class="st8" points="328.5,146.7 328.5,152.8 313.8,152.8 313.8,153.4 328.5,153.4 329.1,153.4 329.1,152.8 329.1,146.7 	
		"/>
	<g>
		<g>
			<image style="overflow:visible;" width="86" height="91" xlink:href="B4D34499103EB45C.png"  transform="matrix(1 0 0 1 33 92)">
			</image>
		</g>
		<g>
			<rect x="69.5" y="127.6" class="st10" width="12.6" height="18"/>
		</g>
	</g>
	<g>
		<g>
			<image style="overflow:visible;" width="80" height="79" xlink:href="B4D34499103EB45D.png"  transform="matrix(1 0 0 1 36 97)">
			</image>
		</g>
		<circle class="st6" cx="75.6" cy="136.7" r="3.2"/>
	</g>
	<g>
		<g>
			
				<image style="overflow:visible;" width="77" height="77" xlink:href="B4D34499103EB45B.png"  transform="matrix(1 0 0 1 37 104)">
			</image>
		</g>
		<circle class="st6" cx="75.5" cy="142.5" r="2"/>
	</g>
	<g>
		<g>
			<image style="overflow:visible;" width="77" height="76" xlink:href="B4D34499103EB464.png"  transform="matrix(1 0 0 1 37 93)">
			</image>
		</g>
		<circle class="st6" cx="75.5" cy="130.9" r="2"/>
	</g>
	<g>
		<g>
			
				<image style="overflow:visible;" width="96" height="116" xlink:href="B4D34499103EB467.png"  transform="matrix(1 0 0 1 220 79)">
			</image>
		</g>
		<g>
			<rect x="256.2" y="114.6" class="st10" width="22.5" height="43.7"/>
		</g>
	</g>
	<g>
		<path class="st12" d="M313.3,113.7c6.7,0,16.4,2.8,24.1,7.1c8.7,4.8,13.6,10.6,13.6,15.9c0,5.3-5,11.1-13.6,15.9
			c-7.7,4.2-17.3,7.1-24.1,7.1H37.8v-46H313.3 M313.3,111.7H35.8v50h277.5c13.8,0,39.7-11.2,39.7-25v0
			C353,122.9,327.1,111.7,313.3,111.7L313.3,111.7z"/>
	</g>
</g>
</svg>
